<?xml version="1.0" encoding="UTF-8"?>
<svg xmlns="http://www.w3.org/2000/svg" xmlns:xlink="http://www.w3.org/1999/xlink" width="0" height="0">
<symbol id="logo" width="48" height="57" viewBox="0 0 48 57" fill="none"><path d="M10.5086 27.6031L2.56561 25.6706L10.3448 19.43L10.5086 27.6031Z" fill="#544CAC"/><path d="M12.156 48.8444L3.46622 55.8133L3.19598 42.2265L12.156 48.8444Z" fill="#FF5C00"/><path d="M35.2639 30.2918L45.4858 32.7697L35.4835 40.8075L35.2639 30.2918Z" fill="#544CAC"/><path d="M9.47674 23.7311L34.0761 3.85705L34.9824 42.4279L9.47674 23.7311Z" fill="#544CAC"/></symbol><symbol id="play" width="23" height="23" viewBox="0 0 23 23" fill="none"><path d="M23 11.5C23 17.8513 17.8513 23 11.5 23C5.14873 23 0 17.8513 0 11.5C0 5.14873 5.14873 0 11.5 0C17.8513 0 23 5.14873 23 11.5ZM1.85424 11.5C1.85424 16.8272 6.17279 21.1458 11.5 21.1458C16.8272 21.1458 21.1458 16.8272 21.1458 11.5C21.1458 6.17279 16.8272 1.85424 11.5 1.85424C6.17279 1.85424 1.85424 6.17279 1.85424 11.5Z" fill="#FF5C00"/><path d="M8.62393 6.15146L8.86802 17.9045L17.944 11.8369L8.62393 6.15146Z" fill="#FF5C00"/></symbol><symbol id="salary" width="16" height="18" viewBox="0 0 16 18" fill="none"><path d="M5.34153 18H9.85085C12.7952 18 15.1911 15.6034 15.1911 12.6575C15.1911 11.4129 14.5939 9.96257 13.5943 8.77781L10.3529 4.93341L12.3806 1.11472C12.4391 1.00537 12.4288 0.872349 12.3549 0.772762C12.281 0.673748 12.1576 0.626822 12.0347 0.648636L9.0769 1.22594L7.81169 0.0829779C7.68957 -0.0276593 7.50316 -0.0276593 7.38033 0.0829779L6.11581 1.22594L3.15715 0.647938C3.0356 0.6267 2.91162 0.67305 2.837 0.772064C2.7631 0.871651 2.75349 1.00482 2.81132 1.11402L4.84024 4.93271L1.59757 8.77711C0.59725 9.96257 0 11.4135 0 12.6575C0.000573997 15.6034 2.39657 18 5.34175 18L5.34153 18ZM3.69573 1.40787L6.15027 1.88746C6.25058 1.90611 6.35218 1.87842 6.42737 1.81025L7.59546 0.754101L8.76425 1.81099C8.83944 1.87915 8.94362 1.90685 9.04134 1.88819L11.4952 1.40861L9.85199 4.50345C9.84683 4.50259 9.84238 4.49943 9.83649 4.49943H5.35546C5.34972 4.49943 5.34513 4.50259 5.33939 4.50331L3.69573 1.40787ZM2.08983 9.19256L5.50541 5.14243H9.68742L13.1024 9.19256C13.9941 10.2494 14.5483 11.5769 14.5483 12.6589C14.5483 15.2496 12.441 17.3578 9.85089 17.3578H5.34157C2.7514 17.3578 0.643429 15.2498 0.643429 12.6582C0.643429 11.5776 1.19763 10.2494 2.0899 9.19252L2.08983 9.19256Z" fill="black"/><path d="M7.01854 11.698L7.95258 12.0368C8.48812 12.2322 8.76452 12.8256 8.56978 13.3599C8.42198 13.7674 8.03168 14.0406 7.59772 14.0406H7.59585C7.30713 14.0406 7.03592 13.9281 6.83472 13.7262C6.73441 13.6246 6.65736 13.5108 6.60527 13.3887C6.53524 13.2254 6.34625 13.1508 6.18354 13.2197C6.02024 13.2897 5.94433 13.4787 6.01449 13.642C6.09801 13.8374 6.22027 14.0174 6.37769 14.1788C6.62523 14.4269 6.93574 14.5883 7.27254 14.6519V15.4228C7.27254 15.6001 7.41661 15.7442 7.59398 15.7442C7.77134 15.7442 7.91541 15.6001 7.91541 15.4228V14.6494C8.48497 14.5388 8.97098 14.1383 9.1742 13.5797C9.32717 13.1599 9.30794 12.7048 9.11896 12.2991C8.92997 11.8942 8.59433 11.5867 8.17257 11.4325L7.23911 11.0944C6.70358 10.899 6.42718 10.3056 6.62191 9.77133C6.76972 9.36379 7.16002 9.09058 7.59398 9.09058H7.59585C7.88327 9.09058 8.15449 9.20308 8.35896 9.40628C8.45539 9.50329 8.53259 9.61708 8.58784 9.74379C8.65859 9.90638 8.84628 9.97913 9.01089 9.91097C9.17348 9.84022 9.24881 9.65066 9.17735 9.48792C9.08996 9.28673 8.96784 9.10664 8.81343 8.9518C8.56403 8.70297 8.25277 8.54168 7.91598 8.47927V7.7084C7.91598 7.53104 7.77191 7.38696 7.59454 7.38696C7.41718 7.38696 7.2731 7.53104 7.2731 7.7084V8.48242C6.70484 8.59435 6.22139 8.99415 6.01821 9.55151C5.86524 9.97125 5.88447 10.4264 6.07346 10.8321C6.26244 11.237 6.59808 11.545 7.01856 11.6979L7.01854 11.698Z" fill="black"/></symbol><symbol id="search" width="14" height="14" viewBox="0 0 14 14" fill="none"><path d="M5.94518 0.00019349C4.04141 0.00100725 2.25313 0.913409 1.13482 2.45435C0.0163926 3.99546 -0.29712 5.97881 0.291544 7.78957C0.880374 9.60055 2.29995 11.0202 4.11063 11.6086C5.92119 12.1968 7.90385 11.8825 9.44413 10.7633L12.4064 13.7265C12.6422 13.9624 12.986 14.0545 13.3081 13.9682C13.6303 13.8818 13.8818 13.6302 13.9682 13.3079C14.0544 12.9856 13.9624 12.6418 13.7266 12.4059L10.7643 9.44267C11.6295 8.25309 12.023 6.78489 11.8689 5.32191C11.7147 3.85892 11.0238 2.50513 9.92963 1.52209C8.83561 0.53904 7.41587 -0.00323154 5.9454 1.83381e-05L5.94518 0.00019349ZM5.94518 10.0332C4.86257 10.0332 3.82436 9.603 3.05884 8.83724C2.29333 8.07148 1.86331 7.03293 1.86331 5.94997C1.86331 4.86701 2.29333 3.82847 3.05884 3.06271C3.82436 2.29694 4.86257 1.86679 5.94518 1.86679C7.02779 1.86679 8.066 2.29694 8.83152 3.06271C9.59704 3.82847 10.027 4.86701 10.027 5.94997C10.0257 7.03243 9.59541 8.07035 8.83006 8.83578C8.06488 9.60138 7.02733 10.0319 5.94518 10.0332Z" fill="#FF5C00"/></symbol><symbol id="star-empty" width="13" height="13" viewBox="0 0 13 13" fill="none"><path d="M2.80117 12.5103L2.79956 12.5101L2.76864 12.5506L2.76837 12.5509L2.49673 12.9069L2.80067 12.5099C2.80084 12.5101 2.80101 12.5102 2.80117 12.5103ZM2.80117 12.5103C2.80539 12.5139 2.80614 12.5164 2.80581 12.5155C2.80545 12.5146 2.80512 12.5128 2.80545 12.5107L2.8054 12.511L2.80117 12.5103ZM0.498264 5.06696L0.498089 5.06678M0.498264 5.06696L0.472885 5.07896M0.498264 5.06696C0.498207 5.0669 0.498149 5.06684 0.498089 5.06678M0.498264 5.06696L0.498089 5.06678M0.498089 5.06678L0.497681 5.06636L0.491636 5.07227C0.487208 5.075 0.48092 5.07773 0.472885 5.07896M0.472885 5.07896L0.486995 5.07681L0.472885 5.07896ZM8.5982 4.47981L12.4948 5.07407L9.65924 7.97444L9.48254 8.15518L9.52332 8.40464L10.1876 12.4686L6.74153 10.5673L6.49999 10.434L6.25845 10.5673L2.81234 12.4686L3.47666 8.40464L3.51744 8.15518L3.34074 7.97444L0.505182 5.07404L4.40209 4.47981L4.6657 4.43961L4.77918 4.1983L6.50015 0.538752L8.22111 4.1983L8.33459 4.43961L8.5982 4.47981ZM12.5275 5.07905C12.5274 5.07905 12.5274 5.07904 12.5273 5.07903L12.5274 5.07905L12.5275 5.07905Z" stroke="#FFB800"/></symbol><symbol id="star-filled" width="13" height="13" viewBox="0 0 13 13" fill="none"><path d="M12.9776 4.91636C12.9229 4.74006 12.7776 4.61141 12.6028 4.58476L8.67358 3.98552L6.91662 0.249428C6.76023 -0.0831426 6.24018 -0.0831426 6.08368 0.249428L4.32672 3.98552L0.397482 4.58468C0.222649 4.61132 0.0773596 4.73998 0.0227324 4.91627C-0.0318843 5.09279 0.0137162 5.28626 0.140153 5.4159L2.98321 8.32397L2.31195 12.4304C2.28221 12.6131 2.35392 12.798 2.49673 12.9069C2.64006 13.0159 2.82951 13.0304 2.9857 12.944L6.49999 11.0051L10.0143 12.944C10.1704 13.0299 10.3598 13.0161 10.5032 12.9069C10.6461 12.798 10.7177 12.6131 10.688 12.4304L10.0168 8.32397L12.8598 5.4159C12.9864 5.28626 13.0319 5.09288 12.9773 4.91639L12.9776 4.91636Z" fill="#FFB800"/></symbol><symbol id="twitter" width="15" height="13" viewBox="0 0 15 13" fill="none"><path d="M14.9522 1.80319C14.4338 2.04105 13.8763 2.19962 13.2882 2.27456C13.8862 1.90703 14.3461 1.32083 14.562 0.628228C14.0026 0.967878 13.3828 1.21725 12.7234 1.34871C12.1968 0.770686 11.4457 0.412109 10.6135 0.412109C9.01498 0.412109 7.71949 1.74207 7.71949 3.38175C7.71949 3.61373 7.74568 3.83982 7.79507 4.05926C5.39033 3.93419 3.25753 2.75053 1.83064 0.954067C1.57994 1.39295 1.43891 1.90703 1.43891 2.4495C1.43891 3.48047 1.9487 4.38791 2.726 4.92271C2.25152 4.90762 1.80495 4.77104 1.41396 4.55186C1.41396 4.56081 1.41396 4.57411 1.41396 4.58664C1.41396 6.02734 2.41182 7.22686 3.73448 7.50002C3.49267 7.56856 3.23728 7.60667 2.97398 7.60667C2.787 7.60667 2.60497 7.58467 2.42862 7.55193C2.79688 8.7292 3.86539 9.58984 5.13123 9.61516C4.14078 10.4103 2.89346 10.8865 1.53696 10.8865C1.30257 10.8865 1.0736 10.8727 0.847107 10.8443C2.12827 11.6845 3.65 12.1771 5.28338 12.1771C10.6059 12.1771 13.5175 7.65117 13.5175 3.72498C13.5175 3.59633 13.5135 3.4682 13.5076 3.3416C14.0759 2.92624 14.5655 2.40193 14.9522 1.80319Z" fill="currentColor"/></symbol><symbol id="you-tube" width="16" height="11" viewBox="0 0 16 11" fill="none"><path d="M15.1503 2.16461C15.0126 1.46386 14.3569 0.953541 13.5958 0.794223C12.457 0.571427 10.3493 0.412109 8.06888 0.412109C5.78982 0.412109 3.6484 0.571427 2.5082 0.794223C1.74851 0.953541 1.09138 1.43149 0.953741 2.16461C0.814758 2.96119 0.677124 4.07642 0.677124 5.51028C0.677124 6.94414 0.814758 8.05936 0.987475 8.85595C1.12646 9.5567 1.78224 10.067 2.54193 10.2263C3.75095 10.4491 5.82355 10.6084 8.10396 10.6084C10.3844 10.6084 12.457 10.4491 13.666 10.2263C14.4257 10.067 15.0815 9.58906 15.2204 8.85595C15.3581 8.05936 15.5308 6.91178 15.5659 5.51028C15.4957 4.07642 15.323 2.96119 15.1503 2.16461ZM6.20407 7.74073V3.27983L10.4181 5.51028L6.20407 7.74073Z" fill="currentColor"/></symbol><symbol id="details" width="17" height="10" viewBox="0 0 17 10" fill="none"><path d="M0.243416 1.66634L7.76094 9.68995C8.15766 10.1033 8.85646 10.1033 9.23422 9.68995L16.6951 1.72271C17.0728 1.30931 17.1295 0.651574 16.6951 0.257037C16.2795 -0.118743 15.6562 -0.0623876 15.2785 0.351017L8.7809 7.28478C8.62978 7.43512 8.40317 7.43512 8.25203 7.28478L1.73559 0.332226C1.39566 -0.0435539 0.791174 -0.118784 0.375631 0.200627C-0.0587635 0.538792 -0.134386 1.27163 0.243481 1.6663L0.243416 1.66634Z" fill="#4238AF"/></symbol><symbol id="menu" width="23" height="5" viewBox="0 0 23 5" fill="none"><path fill-rule="evenodd" clip-rule="evenodd" d="M2.24 0.500255C1.64592 0.500255 1.07608 0.73619 0.65608 1.15633C0.23592 1.57633 0 2.14617 0 2.74025C0 3.33433 0.235936 3.90417 0.65608 4.32417C1.07608 4.74433 1.64592 4.98025 2.24 4.98025C2.83408 4.98025 3.40392 4.74432 3.82392 4.32417C4.24408 3.90417 4.48 3.33433 4.48 2.74025C4.48 2.14617 4.24406 1.57633 3.82392 1.15633C3.40392 0.736174 2.83408 0.500255 2.24 0.500255ZM11.2 0.500255C10.6059 0.500255 10.0361 0.73619 9.61608 1.15633C9.19592 1.57633 8.96 2.14617 8.96 2.74025C8.96 3.33433 9.19593 3.90417 9.61608 4.32417C10.0361 4.74433 10.6059 4.98025 11.2 4.98025C11.7941 4.98025 12.3639 4.74432 12.7839 4.32417C13.2041 3.90417 13.44 3.33433 13.44 2.74025C13.44 2.14353 13.202 1.57149 12.7786 1.15105C12.3553 0.730575 11.7817 0.496375 11.185 0.500255H11.2ZM20.16 0.500255C19.5659 0.500255 18.9961 0.73619 18.5761 1.15633C18.1559 1.57633 17.92 2.14617 17.92 2.74025C17.92 3.33433 18.1559 3.90417 18.5761 4.32417C18.9961 4.74433 19.5659 4.98025 20.16 4.98025C20.7541 4.98025 21.3239 4.74432 21.7439 4.32417C22.1641 3.90417 22.4 3.33433 22.4 2.74025C22.4 2.14025 22.1595 1.56541 21.732 1.14433C21.3047 0.723255 20.7262 0.491215 20.1264 0.500255H20.16Z" fill="currentColor"/></symbol><symbol id="advantages" width="37" height="37" viewBox="0 0 37 37" fill="none"><path d="M21.1731 18.3499C21.1731 19.9089 19.909 21.173 18.35 21.173C16.791 21.173 15.5269 19.9089 15.5269 18.3499C15.5269 16.7909 16.791 15.5269 18.35 15.5269C19.909 15.5269 21.1731 16.7909 21.1731 18.3499Z" fill="white"/><path d="M18.35 0C8.18692 0 0 8.18692 0 18.35C0 28.5131 8.18692 36.7 18.35 36.7C28.5131 36.7 36.7 28.5131 36.7 18.35C36.7 8.18692 28.5131 0 18.35 0ZM8.46923 9.88077C8.46923 9.03385 9.03385 8.46923 9.88077 8.46923C10.7277 8.46923 11.2923 9.03385 11.2923 9.88077C11.2923 10.7277 10.7277 11.2923 9.88077 11.2923C9.03385 11.2923 8.46923 10.7277 8.46923 9.88077ZM18.4912 25.5488L10.7277 27.6662C9.73962 27.9485 8.75154 26.9604 9.03385 25.9723L11.1512 18.2088C12.1392 14.8212 14.68 12.1392 18.0677 11.2923L25.8312 9.175C26.8192 8.89269 27.8073 9.88077 27.525 10.8688L25.4077 18.6323C24.5608 21.8788 21.8788 24.5608 18.4912 25.5488ZM26.8192 28.2308C25.9723 28.2308 25.4077 27.6662 25.4077 26.8192C25.4077 25.9723 25.9723 25.4077 26.8192 25.4077C27.6662 25.4077 28.2308 25.9723 28.2308 26.8192C28.2308 27.6662 27.6662 28.2308 26.8192 28.2308Z" fill="white"/></symbol><symbol id="arrow-l" width="32" height="27" viewBox="0 0 22 20" fill="none"><path d="M2.96796 10.0721L10.0782 17.1824C10.5254 17.6296 10.5254 18.3451 10.0782 18.7476C9.631 19.15 8.91548 19.1948 8.513 18.7476L0.597285 10.8318C0.150084 10.3846 0.150084 9.66912 0.597285 9.26663L8.87076 1.03813C9.09436 0.814531 9.36268 0.725092 9.67572 0.725092C9.98877 0.725092 10.2571 0.814531 10.4807 1.03813C10.9279 1.48533 10.9279 2.20086 10.4807 2.60334L2.96796 10.0721Z" fill="currentColor"/><path d="M20.6319 11.012L8.55749 11.012C7.93141 11.012 7.43949 10.52 7.43949 9.89396C7.43949 9.26788 7.93141 8.77596 8.55749 8.77596L20.6319 8.77596C21.258 8.77596 21.7499 9.26788 21.7499 9.89396C21.7499 10.52 21.258 11.012 20.6319 11.012Z" fill="currentColor"/></symbol><symbol id="arrow-r" width="32" height="27" viewBox="0 0 22 19" fill="none"><path d="M19.0151 9.61149L11.9049 2.50124C11.4577 2.05404 11.4577 1.33852 11.9049 0.936039C12.3521 0.533558 13.0676 0.488838 13.4701 0.936039L21.3858 8.85176C21.833 9.29896 21.833 10.0145 21.3858 10.417L13.1123 18.6455C12.8887 18.8691 12.6204 18.9585 12.3074 18.9585C11.9943 18.9585 11.726 18.8691 11.5024 18.6455C11.0552 18.1983 11.0552 17.4827 11.5024 17.0803L19.0151 9.61149Z" fill="currentColor"/><path d="M1.35116 8.67163L13.4256 8.67163C14.0517 8.67163 14.5436 9.16355 14.5436 9.78963C14.5436 10.4157 14.0517 10.9076 13.4256 10.9076L1.35116 10.9076C0.725075 10.9076 0.233154 10.4157 0.233154 9.78963C0.233154 9.16355 0.725075 8.67163 1.35116 8.67163Z" fill="currentColor"/></symbol><symbol id="fb" width="13" height="13" viewBox="0 0 13 13" fill="none"><path d="M6.49701 0.62793C3.25148 0.62793 0.619873 3.27553 0.619873 6.54079C0.619873 9.50518 2.79057 11.9531 5.61838 12.3807V8.1077H4.16424V6.55353H5.61838V5.51923C5.61838 3.807 6.44751 3.05561 7.86209 3.05561C8.53932 3.05561 8.89805 3.10633 9.06736 3.12907V4.48562H8.1026C7.50223 4.48562 7.29246 5.05871 7.29246 5.70412V6.55353H9.05221L8.81374 8.1077H7.29246V12.3929C10.161 12.0018 12.3742 9.53429 12.3742 6.54079C12.3742 3.27553 9.74278 0.62793 6.49701 0.62793Z" fill="currentColor"/></symbol><symbol id="instagram" width="11" height="11" viewBox="0 0 11 11" fill="none"><path d="M2.98771 0.412109C1.34984 0.412109 0.0171509 1.7468 0.0171509 3.38657V7.63478C0.0171509 9.27435 1.35062 10.6084 2.9889 10.6084H7.23324C8.87132 10.6084 10.2042 9.27376 10.2042 7.63399V3.38538C10.2042 1.74601 8.87072 0.412109 7.23244 0.412109H2.98771ZM8.16679 2.04352C8.39172 2.04352 8.57427 2.22624 8.57427 2.45138C8.57427 2.67651 8.39172 2.85923 8.16679 2.85923C7.94186 2.85923 7.75931 2.67651 7.75931 2.45138C7.75931 2.22624 7.94186 2.04352 8.16679 2.04352ZM5.11067 2.85923C6.5715 2.85923 7.75931 4.04812 7.75931 5.51028C7.75931 6.97243 6.57129 8.16133 5.11067 8.16133C3.64985 8.16133 2.46204 6.97223 2.46204 5.51028C2.46204 4.04833 3.64985 2.85923 5.11067 2.85923ZM5.11067 3.67494C4.09788 3.67494 3.27701 4.49656 3.27701 5.51028C3.27701 6.524 4.09788 7.34562 5.11067 7.34562C6.12347 7.34562 6.94434 6.524 6.94434 5.51028C6.94434 4.49656 6.12347 3.67494 5.11067 3.67494Z" fill="currentColor"/></symbol><symbol id="like" width="24" height="22" viewBox="0 0 24 22" fill="none"><path d="M1.6996 1.83963C-0.567639 4.29254 -0.565429 8.23975 1.6996 10.6948L11.7332 21.5754C15.0816 17.9528 18.4302 14.33 21.7788 10.7072C24.046 8.25431 24.046 4.30483 21.7788 1.85209C19.5115 -0.600819 15.8608 -0.601046 13.5939 1.85209L11.7452 3.85219L9.88498 1.83968C7.61774 -0.613227 3.96701 -0.613227 1.70011 1.83968L1.6996 1.83963Z" fill="white"/></symbol></svg>